<svg width="14" height="14" viewBox="0 0 14 14" fill="none" xmlns="http://www.w3.org/2000/svg">
<path d="M6.99301 0.333496C3.31301 0.333496 0.333008 3.32016 0.333008 7.00016C0.333008 10.6802 3.31301 13.6668 6.99301 13.6668C10.6797 13.6668 13.6663 10.6802 13.6663 7.00016C13.6663 3.32016 10.6797 0.333496 6.99301 0.333496ZM6.99967 12.3335C4.05301 12.3335 1.66634 9.94683 1.66634 7.00016C1.66634 4.0535 4.05301 1.66683 6.99967 1.66683C9.94634 1.66683 12.333 4.0535 12.333 7.00016C12.333 9.94683 9.94634 12.3335 6.99967 12.3335ZM7.33301 3.66683H6.33301V7.66683L9.83301 9.76683L10.333 8.94683L7.33301 7.16683V3.66683Z" fill="white"/>
</svg>
