<svg width="15" height="15" viewBox="0 0 15 15" fill="none" xmlns="http://www.w3.org/2000/svg">
<path d="M9.33491 4.6665L7.50033 6.50109L5.66574 4.6665L4.66699 5.66525L6.50158 7.49984L4.66699 9.33442L5.66574 10.3332L7.50033 8.49859L9.33491 10.3332L10.3337 9.33442L8.49908 7.49984L10.3337 5.66525L9.33491 4.6665ZM7.50033 0.416504C3.58324 0.416504 0.416992 3.58275 0.416992 7.49984C0.416992 11.4169 3.58324 14.5832 7.50033 14.5832C11.4174 14.5832 14.5837 11.4169 14.5837 7.49984C14.5837 3.58275 11.4174 0.416504 7.50033 0.416504ZM7.50033 13.1665C4.37658 13.1665 1.83366 10.6236 1.83366 7.49984C1.83366 4.37609 4.37658 1.83317 7.50033 1.83317C10.6241 1.83317 13.167 4.37609 13.167 7.49984C13.167 10.6236 10.6241 13.1665 7.50033 13.1665Z" fill="#FF4747"/>
</svg>
