<svg width="16" height="12" viewBox="0 0 16 12" fill="none" xmlns="http://www.w3.org/2000/svg">
<path d="M14.0003 0.0065918H2.00033C1.26699 0.0065918 0.666992 0.606592 0.666992 1.33993V3.99992H2.00033V1.32659H14.0003V10.6799H2.00033V7.99992H0.666992V10.6733C0.666992 11.4066 1.26699 11.9933 2.00033 11.9933H14.0003C14.7337 11.9933 15.3337 11.4066 15.3337 10.6733V1.33993C15.3337 0.599925 14.7337 0.0065918 14.0003 0.0065918ZM7.33366 8.66659L10.0003 5.99992L7.33366 3.33326V5.33326H0.666992V6.66659H7.33366V8.66659ZM15.3337 0.0065918H0.666992V3.99992H2.00033V1.32659H14.0003V10.6799H2.00033V7.99992H0.666992V11.9933H15.3337V0.0065918ZM7.33366 8.66659L10.0003 5.99992L7.33366 3.33326V5.33326H0.666992V6.66659H7.33366V8.66659Z" fill="#87888C"/>
</svg>
