<svg width="19" height="19" viewBox="0 0 19 19" fill="none" xmlns="http://www.w3.org/2000/svg">
<path d="M6.875 9.28125C6.27125 9.28125 5.78125 9.77125 5.78125 10.375C5.78125 10.9788 6.27125 11.4688 6.875 11.4688C7.47875 11.4688 7.96875 10.9788 7.96875 10.375C7.96875 9.77125 7.47875 9.28125 6.875 9.28125ZM12.125 9.28125C11.5212 9.28125 11.0312 9.77125 11.0312 10.375C11.0312 10.9788 11.5212 11.4688 12.125 11.4688C12.7288 11.4688 13.2188 10.9788 13.2188 10.375C13.2188 9.77125 12.7288 9.28125 12.125 9.28125ZM9.5 0.75C4.67 0.75 0.75 4.67 0.75 9.5C0.75 14.33 4.67 18.25 9.5 18.25C14.33 18.25 18.25 14.33 18.25 9.5C18.25 4.67 14.33 0.75 9.5 0.75ZM9.5 16.5C5.64125 16.5 2.5 13.3587 2.5 9.5C2.5 9.24625 2.5175 8.9925 2.54375 8.7475C4.60875 7.82875 6.245 6.14 7.1025 4.04875C8.68625 6.28875 11.2937 7.75 14.2425 7.75C14.925 7.75 15.5813 7.67125 16.2113 7.5225C16.395 8.14375 16.5 8.80875 16.5 9.5C16.5 13.3587 13.3587 16.5 9.5 16.5Z" fill="#898A8E"/>
</svg>
