<svg width="18" height="18" viewBox="0 0 18 18" fill="none" xmlns="http://www.w3.org/2000/svg">
<path d="M8.99967 8.99992C11.3938 8.99992 13.333 7.06075 13.333 4.66659C13.333 2.27242 11.3938 0.333252 8.99967 0.333252C6.60551 0.333252 4.66634 2.27242 4.66634 4.66659C4.66634 7.06075 6.60551 8.99992 8.99967 8.99992ZM8.99967 2.49992C10.1913 2.49992 11.1663 3.47492 11.1663 4.66659C11.1663 5.85825 10.1913 6.83325 8.99967 6.83325C7.80801 6.83325 6.83301 5.85825 6.83301 4.66659C6.83301 3.47492 7.80801 2.49992 8.99967 2.49992ZM8.99967 10.0833C6.10717 10.0833 0.333008 11.5349 0.333008 14.4166V17.6666H17.6663V14.4166C17.6663 11.5349 11.8922 10.0833 8.99967 10.0833ZM15.4997 15.4999H2.49967V14.4274C2.71634 13.6474 6.07467 12.2499 8.99967 12.2499C11.9247 12.2499 15.283 13.6474 15.4997 14.4166V15.4999Z" fill="#898A8E"/>
</svg>
