<svg width="19" height="18" viewBox="0 0 19 18" fill="none" xmlns="http://www.w3.org/2000/svg">
<path d="M12.2457 10.2954H11.6576L11.4491 10.109C12.1787 9.32186 12.6179 8.29996 12.6179 7.18829C12.6179 4.70948 10.4516 2.7002 7.77916 2.7002C5.10669 2.7002 2.94043 4.70948 2.94043 7.18829C2.94043 9.6671 5.10669 11.6764 7.77916 11.6764C8.97767 11.6764 10.0794 11.269 10.9281 10.5923L11.129 10.7857V11.3311L14.8511 14.7766L15.9603 13.7478L12.2457 10.2954ZM7.77916 10.2954C5.92555 10.2954 4.42927 8.90758 4.42927 7.18829C4.42927 5.469 5.92555 4.08115 7.77916 4.08115C9.63276 4.08115 11.129 5.469 11.129 7.18829C11.129 8.90758 9.63276 10.2954 7.77916 10.2954Z" fill="#E9E9E9"/>
</svg>
